<svg fill="none" height="18" viewBox="0 0 18 18" width="18" xmlns="http://www.w3.org/2000/svg" xmlns:xlink="http://www.w3.org/1999/xlink"><clipPath id="a"><path d="m0 5h18v9h-18z"/></clipPath><g clip-path="url(#a)"><path d="m5.58644 14h-2.55687c-.05227.0064-.10521.0064-.15749 0-.59866-.024-1.17584-.2177-1.65659-.5559-.480741-.3382-.842831-.8052-1.039238-1.3405-.2104794-.6239-.2263018-1.292-.045572-1.9243.180729-.63224.550351-1.20185 1.06462-1.64062.37071-.3048.81715-.5157 1.29753-.61297.48039-.09728.97902-.07775 1.44925.05677.62069-1.94453 2.5754-2.90803 4.32167-2.98248.93041-.06924 1.86095.13297 2.66595.57935.8051.44638 1.446 1.11546 1.8364 1.917.298-.09249.6133-.12433.9252-.09341.3119.03091.6134.12388.8847.27278.2712.14891.506.35039.6891.5912.183.24082.31.51552.3728.80607.3194.00772.6337.07785.9231.20598s.5475.31149.7583.53855c.349.38628.5772.85678.659 1.35888.0819.5021.0141 1.0158-.1958 1.4835-.2019.4135-.5308.7599-.9439.9943-.413.2343-.8912.3456-1.3721.3195zm-.4632-1.3139h10.34326c.2113.0196.4238-.0229.6086-.1217.1849-.0987.333-.2489.4244-.4301.1029-.2372.1362-.4963.0962-.75-.0399-.2536-.1516-.4923-.3232-.6909-.1431-.1495-.3316-.2538-.5396-.2984-.2081-.0447-.4256-.0277-.623.0488-.0391.0119-.0795.0192-.1205.0219-.1175.0139-.2369-.0005-.347-.0419-.1101-.0413-.2074-.1083-.2829-.1946-.0742-.0855-.1242-.1875-.1452-.29624-.0211-.10879-.0126-.22085.0247-.32566.0494-.15445.0381-.32054-.0316-.46777-.0698-.14723-.1934-.26572-.3482-.33369-.1389-.08045-.3025-.11387-.4641-.09477s-.3116.08958-.4252.19988c-.0573.08099-.1325.1492-.2205.19987-.088.05068-.1867.08261-.289.09356-.1714.01736-.3433-.02649-.4822-.12293-.1388-.09644-.2345-.23849-.2682-.39824-.3799-1.83066-2.06128-2.41752-3.37214-2.36934-1.44519.05693-2.98302.87591-3.17293 2.62773-.01115.08638-.04071.16972-.08688.245-.04618.07527-.10802.14092-.18178.19296-.07569.05464-.1624.09409-.25479.11593s-.18853.02561-.28252.01108c-.07984-.0147-.15757-.03822-.2316-.07008-.78281-.38102-1.47761-.35474-2.01029.07884-.30366.26905-.52211.61267-.63092.99247-.1088.3798-.10366.7807.01486 1.1579.22697.6131.80134.9635 1.66752 1.0073z" fill="#2d3842"/></g></svg>