<svg fill="none" height="18" viewBox="0 0 18 18" width="18" xmlns="http://www.w3.org/2000/svg" xmlns:xlink="http://www.w3.org/1999/xlink"><clipPath id="a"><path d="m0 4h18v10h-18z"/></clipPath><g clip-path="url(#a)"><path d="m1.13342 6.2427c-.225446 0-.445833-.06595-.633287-.18952-.187454-.12356-.333557-.29919-.419833-.50467-.08627584-.20548-.1088495-.43158-.0648665-.64972.043983-.21813.1525475-.4185.3119645-.57577s.362526-.26437.583644-.30776.450308-.02112.658598.06399.38632.22925.51157.41417c.12525.18493.19211.40235.19211.62476.00085.14791-.02805.29451-.08503.43133-.05699.13681-.14092.26111-.24694.3657s-.23202.18739-.3707.24361c-.13868.05621-.28729.08472-.43723.08388zm1.1399 2.75731c.00127-.22268-.0645-.44072-.18897-.62648-.12448-.18576-.30205-.33088-.51023-.41697-.20817-.08608-.43756-.10926-.659104-.06659-.221541.04267-.425252.14926-.585314.30628-.160061.15701-.2692669.35736-.3137744.57567s-.02231304.44474.0637703.65059c.0860831.20585.2321791.38185.4197711.5057.187591.12389.408232.18999.633951.18999.14939.0008.29747-.0275.43574-.0833.13826-.05583.26397-.13806.3699-.24197.10594-.10392.19-.22747.24737-.36355.05736-.13607.08689-.282.08689-.42937zm0 3.88179c.00127-.2226-.0645-.4407-.18897-.6264-.12448-.1858-.30205-.3309-.51023-.417-.20817-.0861-.43756-.1093-.659104-.0666-.221541.0427-.425252.1493-.585314.3063-.160061.157-.2692669.3573-.3137744.5757-.0445075.2183-.02231304.4447.0637703.6505.0860831.2059.2321791.3819.4197711.5057.187591.1239.408232.19.633951.19.299 0 .58605-.1158.79927-.3226.21323-.2068.33556-.4879.34063-.7829zm3.92844-5.81953c0-.22116-.06648-.43734-.19102-.62122-.12455-.18389-.30157-.32721-.50868-.41184s-.43501-.10677-.65488-.06363c-.21987.04315-.42183.14964-.58034.30602-.15852.15638-.26647.35562-.31021.57252-.04373.21691-.02128.44173.0645.64605.08579.20432.23107.37896.41746.50182.1864.12287.40554.18845.62972.18845.14884 0 .29623-.02892.43375-.08512.13752-.05619.26247-.13855.36772-.24239.10525-.10383.18874-.22709.2457-.36276.05696-.13566.08628-.28106.08628-.4279zm0 3.87543c-.00127-.2208-.06883-.4364-.19414-.6194-.12532-.1831-.30278-.32541-.51-.40907s-.43492-.1049-.65436-.06104-.4208.15086-.57867.30751c-.15788.1566-.26519.3559-.3084.5726-.04322.2167-.0204.4412.06557.6452.08598.2039.23126.3782.41751.5008.18625.1225.40514.188.62904.188.14939 0 .29731-.0292.43524-.0858.13794-.0565.26318-.1395.36852-.244.10533-.1045.18869-.2285.24527-.3649s.08527-.2825.08442-.4299zm3.93484-5.81952c0-.22322-.0674-.44137-.19349-.62669-.12612-.18532-.3053-.32941-.51472-.41394-.20942-.08452-.43959-.10565-.66122-.06069s-.42468.15396-.5833.31314-.26564.36133-.30741.58071c-.04178.21938-.01643.44606.07281.65117.08925.20512.23836.3794.42833.50064.18998.12124.41224.18396.63847.18018.29949-.00335.58547-.12351.79543-.33422.21-.21071.3269-.49484.3251-.7903zm0 3.88183c.0013-.22349-.065-.44226-.19034-.62842-.12535-.18616-.30408-.33124-.51338-.41675-.20931-.0855-.43969-.10754-.66174-.0633-.22206.04424-.42572.15274-.58499.31167s-.26692.36107-.30922.58062c-.04231.21956-.01733.44657.07172.65206.08906.20549.23816.38014.42828.50167.19012.12154.41264.18444.63914.18064.29837-.0034.58337-.12265.79316-.33199.20977-.20933.32747-.49184.32737-.7862zm0 3.88179c.0013-.2234-.065-.4422-.19034-.6284-.12535-.1861-.30408-.3312-.51338-.4167-.20931-.0855-.43969-.1076-.66174-.0633-.22206.0442-.42572.1527-.58499.3116-.15927.159-.26692.3611-.30922.5807-.04231.2195-.01733.4465.07172.652.08906.2055.23816.3802.42828.5017s.41264.1844.63914.1806c.29616-.0033.57924-.1208.78867-.3274.20946-.2066.32856-.4859.33186-.7781zm3.9349-5.81953c.0013-.22268-.0645-.44071-.1889-.62648-.1245-.18576-.3021-.33088-.5103-.41697-.2081-.08608-.4375-.10926-.6591-.06659-.2215.04267-.4252.14927-.5853.30628-.16.15701-.2693.35737-.3138.57567-.0445.21831-.0223.44474.0638.65059s.2322.38185.4198.5057.4082.18996.6339.18997c.3012 0 .5902-.1176.8038-.32712.2136-.20951.3344-.49391.3361-.79105zm0 3.87543c0-.2224-.0668-.4398-.1921-.6247-.1252-.1849-.3033-.32907-.5115-.41418-.2083-.08511-.4375-.10738-.6586-.06399-.2212.04339-.4243.15049-.5837.30777-.1594.1573-.268.3576-.312.5758-.0439.2181-.0214.4442.0649.6497s.2324.3811.4198.5047c.1875.1235.4079.1895.6333.1895.15.0008.2986-.0277.4373-.0839.1386-.0562.2646-.139.3707-.2436.106-.1046.1899-.2289.2469-.3657s.0859-.2834.085-.4314zm3.9607-5.81952c-.0013-.22088-.0689-.43644-.1942-.61949-.1253-.18304-.3028-.32537-.51-.40903s-.4349-.10489-.6543-.06104c-.2195.04386-.4208.15086-.5787.30749s-.2652.35587-.3084.5726-.0204.44123.0656.64518.2312.37821.4175.5008c.1862.12258.4051.18801.629.18801.1494 0 .2973-.02913.4353-.08572.1379-.05659.2631-.13952.3685-.24403.1053-.1045.1887-.22852.2452-.36492.0566-.13639.0853-.28248.0845-.42985zm0 3.88183c0-.22116-.0665-.43734-.191-.62123-.1246-.18388-.3016-.3272-.5087-.41183s-.435-.10677-.6549-.06363c-.2199.04315-.4218.14964-.5804.30602-.1585.15638-.2664.35562-.3102.57252-.0437.21691-.0212.44173.0645.64605.0858.20432.2311.37895.4175.50182s.4055.18847.6297.18847c.1489 0 .2963-.0289.4338-.0851.1375-.05623.2624-.1386.3677-.24243.1052-.10383.1887-.2271.2457-.36276s.0863-.28106.0863-.4279zm0 3.89449c0-.2211-.0665-.4373-.191-.6212-.1246-.1839-.3016-.3272-.5087-.4118s-.435-.1068-.6549-.0636c-.2199.0431-.4218.1496-.5804.306-.1585.1564-.2664.3556-.3102.5725-.0437.2169-.0212.4417.0645.646.0858.2044.2311.379.4175.5019.1864.1228.4055.1884.6297.1884.3006 0 .5889-.1178.8015-.3275s.332-.4941.332-.7907z" fill="#2d3842"/></g></svg>