<svg width="18" height="20" viewBox="0 0 18 20" fill="none" xmlns="http://www.w3.org/2000/svg">
<path d="M10.2892 4.41708L10.8958 5.35266C11.0146 5.53608 11.2245 5.64529 11.4421 5.63686L12.5519 5.59438C12.7751 5.58588 12.9724 5.46306 13.0711 5.27121L13.8851 3.68945C13.9921 3.48146 14.3034 3.49378 14.4104 3.71072C14.8602 4.62341 14.8912 5.70743 14.395 6.63641C13.9134 7.53807 13.2148 8.14192 12.2616 8.35636C11.3197 8.56804 10.8407 9.06277 10.6112 9.44873L8.10149 8.26318C8.35991 7.88629 8.77516 7.24414 8.40308 6.34858C8.02621 5.44228 7.92497 4.42219 8.37868 3.50606C8.84629 2.56223 9.74408 1.96146 10.745 1.80359C10.9829 1.76602 11.1727 2.01451 11.0657 2.2225L10.2518 3.80426C10.1531 3.9961 10.1673 4.22893 10.2892 4.41708V4.41708Z" fill="#2D3842"/>
<path d="M11.2838 8.28467L6.20238 17.3773C5.73515 18.1859 4.65576 18.4254 3.82415 17.9047C2.99253 17.3841 2.7414 16.3117 3.27075 15.5417L8.77395 7.09891" fill="#2D3842"/>
</svg>
