<svg fill="none" height="18" viewBox="0 0 18 18" width="18" xmlns="http://www.w3.org/2000/svg"><path d="m11.25 9.71429h-4.5v-4.85715h4.5zm-4.5 0h-4.5v4.85711h4.5zm9-9.71429h-4.5v2.42857h4.5zm-2.25 14.5714h-4.5v2.4286h4.5zm-11.25-7.28569h-2.25v2.42858h2.25zm0 4.85719h-2.25v2.4285h2.25zm15.75-9.71433h-2.25v2.42857h2.25zm-9 9.71433h-2.25v2.4285h2.25zm-4.5 2.4285h-2.25v2.4286h2.25zm6.75-4.85711h-2.25v2.42861h2.25zm4.5-2.42858h-2.25v2.42858h2.25zm-2.25-4.85714h-2.25v2.42857h2.25zm4.5 2.42857h-4.5v2.42857h4.5zm-9-2.42857h-2.25v2.42857h2.25zm-6.75-2.42857h-2.25v2.42857h2.25zm2.25 2.42857h-2.25v2.42857h2.25zm13.5 9.71433h-2.25v2.4285h2.25z" fill="#2d3842"/></svg>