<svg enable-background="new 0 0 20 20" width="18" viewBox="0 0 20 20" xmlns="http://www.w3.org/2000/svg"><path d="m2.3 11.7 5.9 5.9c.6.6 1.2.9 1.7.9.6 0 1.2-.3 1.7-.8l6-6c.6-.6.9-1.1.9-1.7s-.3-1.2-.9-1.8l-5.9-5.9c-.6-.6-1.2-.9-1.7-.9-.6 0-1.2.3-1.7.9l-6 6c-.6.5-.8 1.1-.8 1.7s.2 1.2.8 1.7zm1.2-1c-.2-.2-.4-.5-.4-.7s.1-.5.4-.7l5.8-5.8c.2-.2.5-.4.7-.3.2 0 .5.1.7.4l5.8 5.8c.2.2.4.5.4.7s-.1.5-.4.7l-5.8 5.7c-.2.3-.5.4-.7.4s-.5-.1-.7-.4zm4.1 2.4c.2 0 .4-.1.5-.2l1.9-1.9 1.9 1.9c.1.1.3.2.5.2s.4-.1.5-.2.2-.3.2-.5-.1-.4-.2-.5l-1.9-1.9 1.9-1.9c.1-.1.2-.3.2-.5s-.1-.4-.2-.5-.3-.2-.5-.2-.4.1-.5.2l-1.9 1.9-1.9-1.9c-.1-.1-.3-.2-.5-.2s-.3.1-.5.2c-.1.2-.2.3-.2.5s.1.4.2.5l1.9 1.9-1.9 1.9c-.1.1-.2.3-.2.5s.1.4.2.5c.2.1.3.2.5.2z" fill="#2d3842"/></svg>