<svg fill="none" height="18" viewBox="0 0 18 18" width="18" xmlns="http://www.w3.org/2000/svg"><path d="m14.4269 3c-.3848 0-.687.22707-.687.49956v10.38044c0 .2725.2954.4996.687.4996.1586.0171.3182-.0238.4459-.1143.1278-.0905.214-.2237.241-.3723v-10.39344c0-.27249-.2954-.49956-.6869-.49956zm-10.99194 0c-.39158 0-.68699.22707-.68699.49956v10.38044c0 .2725.29541.4996.68699.4996.15866.0171.31822-.0238.44597-.1143.12774-.0905.21398-.2237.24103-.3723v-10.39344c0-.27249-.29541-.49956-.687-.49956zm-2.747967 2.7119c-.082334-.00897-.165735-.0022-.245247.01988-.079511.02208-.15351.05904-.217598.10867-.064087.04962-.116956.11091-.1554617.18022-.0385062.06931-.06186441.14522-.0686863.22323v5.9233c0 .2725.295407.4931.686993.4996.158354.0155.317077-.026.444437-.1162s.21399-.2225.24256-.3704v-5.9363c0-.27249-.29541-.49956-.686997-.50605zm8.395057 0c-.16206-.01836-.32522.02454-.45392.11933-.12869.0948-.21248.23381-.23308.38671v5.92336c0 .2725.29541.4931.687.4996.39158.0064.68699-.2141.68699-.4866v-5.9104c-.0239-.15148-.10854-.28849-.23641-.38268s-.28919-.13836-.45058-.12337zm-5.64709 1.97877c-.37784 0-.68699.22708-.68699.49956v3.95107c0 .2725.29541.4931.68699.4996.15836.0155.31708-.026.44444-.1162.12737-.0902.21399-.2225.24256-.3704v-3.96407c0-.27248-.29541-.49956-.687-.49956zm13.73984 0c-.3778 0-.687.22708-.687.49956v3.95107c0 .2725.2954.4931.687.4996.1584.0155.3171-.026.4445-.1162.1273-.0902.2139-.2225.2425-.3704v-3.96407c0-.27248-.2954-.49956-.687-.49956zm-5.4959.98615c-.3779 0-.687.22707-.687.49956v2.96492c0 .2725.2954.4931.687.4996.1583.0155.3171-.026.4444-.1162.1274-.0902.214-.2225.2426-.3704v-2.97792c0-.27249-.2954-.49308-.687-.49956zm-5.49596.98614c-.37785 0-.687.22707-.687.49954v1.9788c0 .2725.29541.4931.687.4996.15835.0155.31707-.026.44444-.1162.12736-.0902.21398-.2225.24255-.3704v-2.0177c0-.27252-.29541-.4931-.68699-.49959z" fill="#2d3842"/></svg>