<svg fill="none" height="18" viewBox="0 0 18 18" width="18" xmlns="http://www.w3.org/2000/svg" xmlns:xlink="http://www.w3.org/1999/xlink"><clipPath id="a"><path d="m0 3h17v13h-17z"/></clipPath><g clip-path="url(#a)"><path d="m.68 16c-.180347 0-.353308-.0748-.480833-.2078-.1275243-.1331-.199167-.3136-.199167-.5018s.0716427-.3687.199167-.5018c.127525-.1331.300486-.2078.480833-.2078 8.55893 0 13.4821-1.7504 14.96-10.98946.0149-.09319.0472-.1824.0951-.26255.048-.08015.1105-.14967.1842-.20458s.157-.09414.2452-.11545c.0882-.02132.1795-.02429.2688-.00876s.1748.04926.2516.09927.1435.11532.1961.1922c.0526.07687.0902.16381.1106.25585.0204.09203.0233.18737.0084.28055-1.6411 10.13793-7.48 12.17213-16.32 12.17213z" fill="#2d3842"/></g></svg>