<svg fill="none" height="18" viewBox="0 0 18 18" width="18" xmlns="http://www.w3.org/2000/svg" xmlns:xlink="http://www.w3.org/1999/xlink"><clipPath id="a"><path d="m1 2h16v14h-16z"/></clipPath><g clip-path="url(#a)"><path d="m8.99997 2c-.05761-.00627-.11574-.00627-.17336 0l-7.33226 2.22162c-.14863.05266-.2766.15091-.36546.28056-.08885.12965-.133995.28401-.12892.44082-.006464.15788.03803.31368.12698.44462s.21769.23016.3674.28315l7.33226 2.20246c.11415.02554.23257.02554.34671 0l7.33228-2.20246c.1497-.05299.2784-.15221.3674-.28315.0889-.13094.1334-.28674.127-.44462.005-.15681-.0401-.31117-.129-.44082-.0888-.12965-.2168-.2279-.3654-.28056l-7.33228-2.22162zm-5.77849 5.74556-1.72713.52986c-.15301.05392-.28412.15607-.37336.2909-.08925.13483-.131743.29497-.12102.45603-.007126.15722.0372.31251.12634.44257.08913.13006.21827.22789.36804.27881l7.33226 2.20247c.11339.0316.23333.0316.34671 0l7.33228-2.20247c.1498-.05092.2789-.14875.368-.27881.0892-.13006.1335-.28535.1264-.44257.005-.15682-.0401-.31118-.129-.44083-.0888-.12965-.2168-.22789-.3654-.28056l-1.7592-.5554-5.22637 1.56406c-.31903.08981-.65688.08981-.97592 0zm0 4.05384-1.77207.5298c-.14684.0559-.27316.1548-.36227.2836-.089114.1288-.136823.2815-.136823.4378 0 .1564.047709.309.136823.4378.08911.1288.21543.2277.36227.2836l7.33226 2.2025c.11338.0316.23333.0316.34671 0l7.33222-2.2025c.1469-.0559.2732-.1548.3623-.2836s.1368-.2814.1368-.4378c0-.1563-.0477-.309-.1368-.4378s-.2154-.2277-.3623-.2836l-1.7656-.5298-5.21991 1.5704c-.31952.0863-.6564.0863-.97592 0z" fill="#2d3842"/></g></svg>