<svg fill="none" height="18" viewBox="0 0 18 18" width="18" xmlns="http://www.w3.org/2000/svg" xmlns:xlink="http://www.w3.org/1999/xlink"><clipPath id="a"><path d="m0 0h18v18h-18z"/></clipPath><g clip-path="url(#a)"><path d="m5.39062 2.3918c-.15892.00248-.31037.06792-.4211.18194-.11073.11403-.1717.26733-.16952.42626v6.6c-.00112.07951.01356.15845.04321.23223s.07367.14093.12949.19757c.05583.0566.12235.1016.19571.1323.07335.0306.15207.0464.23159.0464.07951 0 .15824-.0158.23159-.0464.07336-.0307.13988-.0757.19571-.1323.05582-.05664.09984-.12379.12949-.19757s.04433-.15272.04321-.23223v-6.6c.0011-.08027-.01392-.15995-.04417-.23432-.03025-.07436-.07511-.1419-.13194-.19861-.05682-.05671-.12444-.10145-.19886-.13155-.07443-.03011-.15413-.04498-.23441-.04372zm-2.4 1.8c-.15892.00248-.31037.06792-.4211.18194-.11073.11403-.1717.26733-.16952.42626v4.8c-.00113.07951.01356.15845.04321.23223s.07367.14093.12949.19757c.05583.0566.12235.1016.19571.1323.07335.0306.15207.0464.23159.0464.07951 0 .15824-.0158.23159-.0464.07336-.0307.13988-.0757.19571-.1323.05582-.05664.09984-.12379.12949-.19757s.04433-.15272.04321-.23223v-4.8c.0011-.08027-.01392-.15995-.04417-.23432-.03025-.07436-.07511-.1419-.13194-.19861-.05682-.05671-.12444-.10145-.19887-.13155-.07442-.03011-.15412-.04498-.2344-.04372zm4.80001 1.8c-.15893.00248-.31038.06792-.42111.18194-.11073.11403-.1717.26733-.16952.42626v3c-.00112.07951.01356.15845.04321.23223s.07367.14093.12949.19757c.05583.0566.12235.1016.19571.1323.07335.0306.15208.0464.23159.0464.07952 0 .15824-.0158.23159-.0464.07336-.0307.13988-.0757.19571-.1323.05582-.05664.09984-.12379.12949-.19757s.04433-.15272.04321-.23223v-3c.0011-.08027-.01392-.15995-.04417-.23432-.03025-.07436-.07511-.1419-.13194-.19861-.05682-.05671-.12444-.10145-.19886-.13155-.07443-.03011-.15413-.04498-.2344-.04372zm-7.200006 1.2c-.158925.00248-.310372.06792-.421103.18194-.1107308.11403-.17169842.26733-.16952203.42626v1.8c-.00112443.07951.01356433.15845.04321253.23223.0296483.07378.0736645.14093.1294915.19757.055827.0566.12235.1016.195704.1323.073355.0306.152077.0464.231592.0464s.158237-.0158.231592-.0464c.073354-.0307.139877-.0757.195709-.1323.05582-.05664.09984-.12379.12949-.19757.02964-.07378.04433-.15272.04321-.23223v-1.8c.0011-.08027-.01392-.15995-.04417-.23432-.03025-.07436-.07511-.1419-.13194-.19861-.056819-.05671-.124443-.10145-.198865-.13155-.074423-.03011-.15413-.04498-.234401-.04372zm9.599976 1.8c-.1589.00248-.31035.06792-.42108.18194-.11073.11403-.1717.26733-.16952.42626v3c-.00112.0795.01356.1584.04321.2322s.07367.141.12949.1976c.05583.0566.12235.1016.19571.1323.07339.0306.15209.0464.23159.0464s.1582-.0158.2316-.0464c.0733-.0307.1399-.0757.1957-.1323s.0998-.1238.1295-.1976c.0296-.0738.0443-.1527.0432-.2322v-3c.0011-.08027-.0139-.15995-.0442-.23432-.0302-.07436-.0751-.1419-.1319-.19861s-.1245-.10145-.1989-.13155c-.0744-.03011-.1541-.04498-.2344-.04372zm2.4 0c-.1589.00248-.3103.06792-.4211.18194-.1107.11403-.1717.26733-.1695.42626v6c-.0011.0795.0136.1584.0432.2322.0297.0738.0737.141.1295.1976s.1224.1016.1957.1323c.0734.0306.1521.0464.2316.0464s.1582-.0158.2316-.0464c.0733-.0307.1399-.0757.1957-.1323s.0998-.1238.1295-.1976c.0296-.0738.0443-.1527.0432-.2322v-6c.0011-.08027-.0139-.15995-.0442-.23432-.0302-.07436-.0751-.1419-.1319-.19861s-.1245-.10145-.1989-.13155c-.0744-.03011-.1541-.04498-.2344-.04372zm2.4 0c-.1589.00248-.3103.06792-.4211.18194-.1107.11403-.1717.26733-.1695.42626v4.2c-.0011.0795.0136.1584.0432.2322.0297.0738.0737.141.1295.1976s.1224.1016.1957.1323c.0734.0306.1521.0464.2316.0464s.1582-.0158.2316-.0464c.0733-.0307.1399-.0757.1957-.1323s.0998-.1238.1295-.1976c.0296-.0738.0443-.1527.0432-.2322v-4.2c.0011-.08027-.0139-.15995-.0442-.23432-.0302-.07436-.0751-.1419-.1319-.19861s-.1245-.10145-.1989-.13155c-.0744-.03011-.1541-.04498-.2344-.04372zm2.4 0c-.1589.00248-.3103.06792-.4211.18194-.1107.11403-.1717.26733-.1695.42626v1.8c-.0011.0795.0136.1584.0432.2322.0297.0738.0737.141.1295.1976s.1224.1016.1957.1323c.0734.0306.1521.0464.2316.0464s.1582-.0158.2316-.0464c.0733-.0307.1399-.0757.1957-.1323s.0998-.1238.1295-.1976c.0296-.0738.0443-.1527.0432-.2322v-1.8c.0011-.08027-.0139-.15995-.0442-.23432-.0302-.07436-.0751-.1419-.1319-.19861s-.1245-.10145-.1989-.13155c-.0744-.03011-.1541-.04498-.2344-.04372z" fill="#2d3842"/></g></svg>