<svg width="18" height="19" viewBox="0 0 18 19" fill="none" xmlns="http://www.w3.org/2000/svg">
<g clip-path="url(#clip0_705_223)">
<path d="M0 10.331C0.430849 9.8513 0.949142 9.45903 1.54486 9.21386C2.13785 8.96869 2.81099 8.90473 3.45499 9.02518C4.1008 9.14137 4.70472 9.42492 5.25034 9.75963C5.79778 10.0954 6.29331 10.4877 6.76697 10.8704C7.71246 11.6368 8.57598 12.3936 9.5397 12.7187C10.0197 12.885 10.5307 12.9362 11.0673 12.8658C11.6056 12.7997 12.1521 12.61 12.7223 12.3979C12.3161 12.9063 11.8242 13.3391 11.2476 13.6354C10.6728 13.9318 10.0006 14.0565 9.34477 13.9755C8.6862 13.8998 8.06498 13.6333 7.50934 13.3082C6.95096 12.9809 6.44998 12.5897 5.9745 12.2039C5.02444 11.431 4.16457 10.6529 3.20267 10.2617C2.72355 10.0634 2.21527 9.96856 1.67603 9.99201C1.13587 10.0112 0.580234 10.1551 0.000910885 10.3299L0 10.331Z" fill="#2D3842"/>
<path d="M14.8485 9.8854C14.4222 10.3118 13.9394 10.671 13.4075 10.9396C12.8737 11.1976 12.2898 11.3586 11.6923 11.3927C11.0938 11.4278 10.4881 11.3298 9.91877 11.1411C9.84772 11.1177 9.77485 11.0963 9.70471 11.0697L9.49703 10.9833C9.35675 10.9279 9.22194 10.865 9.08804 10.8C8.95232 10.7371 8.82297 10.6636 8.69271 10.5921C8.56155 10.5218 8.43584 10.4461 8.30923 10.3704C7.30179 9.75962 6.42734 9.01345 5.51372 8.50286C5.05646 8.24703 4.58735 8.05303 4.08455 7.96775C3.95884 7.94217 3.83223 7.94217 3.70197 7.92511C3.57263 7.92298 3.44237 7.92724 3.30847 7.92618L2.90586 7.96988C2.77105 7.9944 2.63624 8.02425 2.49414 8.04556C2.93501 7.6373 3.48336 7.35376 4.07635 7.25889C4.66933 7.15976 5.28418 7.25036 5.85075 7.43904C6.42097 7.62664 6.94473 7.91019 7.44207 8.20226C7.69074 8.3483 7.93212 8.50393 8.17169 8.64996C8.40943 8.80133 8.64444 8.95163 8.87853 9.09127C9.81037 9.66475 10.7276 10.1274 11.7196 10.2628C12.2142 10.3352 12.7252 10.3267 13.249 10.2596C13.7727 10.1849 14.2974 10.0368 14.8476 9.88647L14.8485 9.8854Z" fill="#2D3842"/>
<path d="M4.63568 6.6886C5.16854 6.3944 5.73876 6.18334 6.33721 6.07354C6.93384 5.96482 7.56417 5.97334 8.17447 6.11512C8.78385 6.25689 9.36408 6.52018 9.89604 6.78987C10.4316 7.06168 10.9317 7.32498 11.44 7.50725C11.5666 7.55735 11.6941 7.59146 11.8216 7.63517C11.9501 7.66502 12.0785 7.70339 12.2079 7.72791C12.4666 7.78227 12.7289 7.81745 12.9958 7.8313C13.5286 7.86435 14.0743 7.82597 14.6272 7.74816C15.733 7.5808 16.8488 7.25995 18.0002 6.97001C17.7561 7.16082 17.5074 7.34736 17.2514 7.51791C16.9927 7.681 16.735 7.85156 16.4663 7.99333L16.0618 8.20652C15.9261 8.27687 15.7858 8.3323 15.6465 8.39626C15.508 8.46022 15.3677 8.51991 15.2238 8.56895C15.0808 8.62011 14.9378 8.67661 14.792 8.72138C14.21 8.90472 13.6006 9.01665 12.9767 9.02731C12.8209 9.03797 12.6642 9.02091 12.5075 9.01238C12.3509 9.00812 12.1951 8.97614 12.0384 8.95695C11.8827 8.93244 11.7287 8.8898 11.5739 8.85462C11.4227 8.80665 11.2678 8.76721 11.1194 8.70965C10.9709 8.65316 10.8233 8.5956 10.6803 8.52737C10.5346 8.46448 10.3961 8.39413 10.2567 8.32271C9.98348 8.17454 9.71659 8.02318 9.46246 7.86968C8.95054 7.55949 8.46595 7.27914 7.95676 7.06915C7.4494 6.86128 6.91562 6.73977 6.35725 6.6886C5.79979 6.63424 5.22502 6.65769 4.63477 6.68647L4.63568 6.6886Z" fill="#2D3842"/>
</g>
<defs>
<clipPath id="clip0_705_223">
<rect width="18" height="8" fill="white" transform="translate(0 6)"/>
</clipPath>
</defs>
</svg>
